<svg width="24" height="24" viewBox="0 0 24 24" fill="none" xmlns="http://www.w3.org/2000/svg">
<g clip-path="url(#clip0_70_120)">
<path d="M17.5 0.916992C16.374 0.934507 15.2725 1.24885 14.3068 1.82826C13.3411 2.40768 12.5454 3.23166 12 4.21699C11.4547 3.23166 10.659 2.40768 9.69326 1.82826C8.72756 1.24885 7.62607 0.934507 6.50002 0.916992C4.70496 0.994983 3.01373 1.78025 1.7958 3.10122C0.577879 4.4222 -0.0677312 6.17152 1.93259e-05 7.96699C1.93259e-05 14.742 10.956 22.567 11.422 22.899L12 23.308L12.578 22.899C13.044 22.569 24 14.742 24 7.96699C24.0678 6.17152 23.4222 4.4222 22.2042 3.10122C20.9863 1.78025 19.2951 0.994983 17.5 0.916992Z" fill="white"/>
</g>
<defs>
<clipPath id="clip0_70_120">
<rect width="24" height="24" fill="white"/>
</clipPath>
</defs>
</svg>
